<svg width="196" height="52" viewBox="0 0 196 52" fill="none" xmlns="http://www.w3.org/2000/svg">
<g clip-path="url(#clip0_1_6)">
<path d="M12.0078 2C11.8758 1.99898 11.745 2.0241 11.6227 2.07389C11.5005 2.12369 11.3894 2.19719 11.2957 2.29015C11.202 2.3831 11.1276 2.49369 11.0769 2.61552C11.0261 2.73735 11 2.86802 11 3V15.3535C10.9998 15.542 11.0528 15.7267 11.153 15.8864C11.2533 16.046 11.3966 16.1741 11.5664 16.2559L29.5664 24.9023C29.7231 24.9775 29.8966 25.0105 30.0699 24.9982C30.2432 24.9858 30.4103 24.9286 30.5547 24.832L39.5547 18.832C39.6976 18.737 39.8136 18.6068 39.8916 18.454C39.9696 18.3011 40.007 18.1308 40.0001 17.9593C39.9932 17.7879 39.9424 17.621 39.8524 17.4749C39.7624 17.3288 39.6363 17.2083 39.4863 17.125L12.4863 2.125C12.3398 2.04393 12.1753 2.00095 12.0078 2V2ZM13 4.70117L37.0801 18.0781L29.9199 22.8516L13 14.7246V4.70117ZM11.959 19C11.701 19.0106 11.457 19.1206 11.2783 19.307C11.0995 19.4934 10.9998 19.7417 11 20V51C11.0005 51.0111 11.0011 51.0221 11.002 51.0332C11.0033 51.0626 11.0059 51.0919 11.0098 51.1211C11.0103 51.1302 11.0109 51.1393 11.0117 51.1484C11.0153 51.174 11.0199 51.1994 11.0254 51.2246C11.0278 51.2344 11.0305 51.2442 11.0332 51.2539C11.038 51.271 11.0432 51.2879 11.0488 51.3047C11.058 51.3331 11.0684 51.3612 11.0801 51.3887C11.0929 51.4193 11.1072 51.4493 11.123 51.4785C11.1392 51.508 11.1568 51.5367 11.1758 51.5645C11.1906 51.5859 11.2062 51.6067 11.2227 51.627C11.2322 51.6382 11.2419 51.6493 11.252 51.6602C11.2621 51.6715 11.2725 51.6825 11.2832 51.6934C11.2921 51.7026 11.3013 51.7118 11.3105 51.7207C11.3269 51.7369 11.3439 51.7525 11.3613 51.7676C11.3709 51.7756 11.3807 51.7834 11.3906 51.791C11.4065 51.8032 11.4228 51.8149 11.4395 51.8262C11.4491 51.8329 11.4589 51.8394 11.4688 51.8457C11.4941 51.8618 11.5202 51.8768 11.5469 51.8906C11.5724 51.9035 11.5985 51.9152 11.625 51.9258C11.6328 51.9291 11.6406 51.9324 11.6484 51.9355C11.6646 51.9412 11.6809 51.9464 11.6973 51.9512C11.7173 51.9577 11.7375 51.9635 11.7578 51.9688C11.7688 51.9715 11.7799 51.9741 11.791 51.9766C11.8072 51.9802 11.8235 51.9835 11.8398 51.9863C11.8645 51.9899 11.8892 51.9925 11.9141 51.9941C11.9193 51.9948 11.9245 51.9955 11.9297 51.9961C11.9336 51.9961 11.9375 51.9961 11.9414 51.9961C11.9707 51.998 12 51.9987 12.0293 51.998C12.0626 51.9971 12.0959 51.9945 12.1289 51.9902C12.1551 51.9867 12.1812 51.9822 12.207 51.9766C12.2142 51.9753 12.2214 51.974 12.2285 51.9727C12.239 51.9702 12.2494 51.9676 12.2598 51.9648C12.2815 51.9591 12.303 51.9525 12.3242 51.9453C12.3249 51.9453 12.3255 51.9453 12.3262 51.9453C12.3567 51.9344 12.3867 51.922 12.416 51.9082C12.4433 51.8964 12.47 51.8833 12.4961 51.8691L40.4961 35.8691C40.6493 35.7816 40.7766 35.6551 40.8651 35.5024C40.9536 35.3498 41.0001 35.1764 41 35V22C41 21.8008 40.9404 21.6062 40.8291 21.4411C40.7177 21.2759 40.5596 21.1478 40.375 21.0731C40.1903 20.9984 39.9876 20.9805 39.7927 21.0218C39.5979 21.0631 39.4198 21.1616 39.2812 21.3047L14.1855 47.2969L20.9551 25.2949C21.02 25.0842 21.0135 24.8579 20.9365 24.6512C20.8594 24.4446 20.7163 24.2692 20.5293 24.1523L12.5293 19.1523C12.3589 19.0453 12.1601 18.9922 11.959 19V19ZM13 21.8047L18.8184 25.4414L13 44.3516V21.8047ZM39 24.4746V34.4199L17.582 46.6582L39 24.4746Z" fill="white"/>
</g>
<path d="M48.728 28.136C48.728 26.12 49.136 24.356 49.952 22.844C50.768 21.308 51.884 20.132 53.3 19.316C54.74 18.476 56.36 18.056 58.16 18.056C59.888 18.056 61.448 18.476 62.84 19.316C64.232 20.156 65.252 21.248 65.9 22.592V11.36H68.42V38H65.9V33.608C65.3 34.976 64.316 36.104 62.948 36.992C61.58 37.856 59.972 38.288 58.124 38.288C56.324 38.288 54.704 37.868 53.264 37.028C51.848 36.188 50.732 35 49.916 33.464C49.124 31.928 48.728 30.152 48.728 28.136ZM65.9 28.172C65.9 26.588 65.576 25.196 64.928 23.996C64.28 22.796 63.392 21.872 62.264 21.224C61.16 20.576 59.936 20.252 58.592 20.252C57.2 20.252 55.952 20.564 54.848 21.188C53.744 21.812 52.868 22.724 52.22 23.924C51.596 25.1 51.284 26.504 51.284 28.136C51.284 29.744 51.596 31.16 52.22 32.384C52.868 33.584 53.744 34.508 54.848 35.156C55.952 35.78 57.2 36.092 58.592 36.092C59.936 36.092 61.16 35.768 62.264 35.12C63.392 34.472 64.28 33.548 64.928 32.348C65.576 31.148 65.9 29.756 65.9 28.172ZM76.693 21.836C77.245 20.612 78.085 19.664 79.213 18.992C80.365 18.32 81.769 17.984 83.425 17.984V20.612H82.741C80.917 20.612 79.453 21.104 78.349 22.088C77.245 23.072 76.693 24.716 76.693 27.02V38H74.173V18.344H76.693V21.836ZM86.0639 28.136C86.0639 26.12 86.4599 24.356 87.2519 22.844C88.0679 21.308 89.1839 20.132 90.5999 19.316C92.0399 18.476 93.6599 18.056 95.4599 18.056C97.3319 18.056 98.9399 18.488 100.284 19.352C101.652 20.216 102.636 21.32 103.236 22.664V18.344H105.756V38H103.236V33.644C102.612 34.988 101.616 36.104 100.248 36.992C98.9039 37.856 97.2959 38.288 95.4239 38.288C93.6479 38.288 92.0399 37.868 90.5999 37.028C89.1839 36.188 88.0679 35 87.2519 33.464C86.4599 31.928 86.0639 30.152 86.0639 28.136ZM103.236 28.172C103.236 26.588 102.912 25.196 102.264 23.996C101.616 22.796 100.728 21.872 99.5999 21.224C98.4959 20.576 97.2719 20.252 95.9279 20.252C94.5359 20.252 93.2879 20.564 92.1839 21.188C91.0799 21.812 90.2039 22.724 89.5559 23.924C88.9319 25.1 88.6199 26.504 88.6199 28.136C88.6199 29.744 88.9319 31.16 89.5559 32.384C90.2039 33.584 91.0799 34.508 92.1839 35.156C93.2879 35.78 94.5359 36.092 95.9279 36.092C97.2719 36.092 98.4959 35.768 99.5999 35.12C100.728 34.472 101.616 33.548 102.264 32.348C102.912 31.148 103.236 29.756 103.236 28.172ZM137.429 18.344L131.273 38H128.753L123.317 21.512L117.881 38H115.325L109.169 18.344H111.725L116.621 35.444L122.129 18.344H124.649L130.085 35.48L134.945 18.344H137.429ZM149.468 38.288C147.62 38.288 145.952 37.88 144.464 37.064C143 36.224 141.836 35.048 140.972 33.536C140.132 32 139.712 30.212 139.712 28.172C139.712 26.132 140.144 24.356 141.008 22.844C141.872 21.308 143.048 20.132 144.536 19.316C146.024 18.476 147.692 18.056 149.54 18.056C151.388 18.056 153.056 18.476 154.544 19.316C156.056 20.132 157.232 21.308 158.072 22.844C158.936 24.356 159.368 26.132 159.368 28.172C159.368 30.188 158.936 31.964 158.072 33.5C157.208 35.036 156.02 36.224 154.508 37.064C152.996 37.88 151.316 38.288 149.468 38.288ZM149.468 36.092C150.764 36.092 151.964 35.804 153.068 35.228C154.172 34.628 155.06 33.74 155.732 32.564C156.428 31.364 156.776 29.9 156.776 28.172C156.776 26.444 156.44 24.992 155.768 23.816C155.096 22.616 154.208 21.728 153.104 21.152C152 20.552 150.8 20.252 149.504 20.252C148.208 20.252 147.008 20.552 145.904 21.152C144.8 21.728 143.912 22.616 143.24 23.816C142.592 24.992 142.268 26.444 142.268 28.172C142.268 29.9 142.592 31.364 143.24 32.564C143.912 33.74 144.788 34.628 145.868 35.228C146.972 35.804 148.172 36.092 149.468 36.092ZM166.482 21.836C167.034 20.612 167.874 19.664 169.002 18.992C170.154 18.32 171.558 17.984 173.214 17.984V20.612H172.53C170.706 20.612 169.242 21.104 168.138 22.088C167.034 23.072 166.482 24.716 166.482 27.02V38H163.962V18.344H166.482V21.836ZM187.625 38L179.525 29.18V38H177.005V11.36H179.525V27.128L187.445 18.344H190.973L181.649 28.136L191.045 38H187.625Z" fill="white"/>
<defs>
<clipPath id="clip0_1_6">
<rect width="50" height="50" fill="white" transform="translate(0 2)"/>
</clipPath>
</defs>
</svg>
